<svg width="20" height="24" viewBox="0 0 20 24" fill="none" xmlns="http://www.w3.org/2000/svg">
<path d="M4.54545 0C4.30436 2.26606e-05 4.07314 0.0903359 3.90266 0.251076C3.73217 0.411817 3.63639 0.629821 3.63636 0.857143V1.71429H0.909091C0.667992 1.71431 0.436776 1.80462 0.266293 1.96536C0.0958108 2.1261 2.40821e-05 2.34411 0 2.57143V4.28571C0 7.47634 1.68455 10.288 4.25604 11.9933C4.88435 13.2393 5.95212 14.247 7.27273 14.841V17.1429H3.63636C3.39527 17.1429 3.16405 17.2332 2.99357 17.3939C2.82308 17.5547 2.7273 17.7727 2.72727 18V23.1429C2.7273 23.3702 2.82308 23.5882 2.99357 23.7489C3.16405 23.9097 3.39527 24 3.63636 24H16.3636C16.6047 24 16.836 23.9097 17.0064 23.7489C17.1769 23.5882 17.2727 23.3702 17.2727 23.1429V18C17.2727 17.7727 17.1769 17.5547 17.0064 17.3939C16.836 17.2332 16.6047 17.1429 16.3636 17.1429H12.7273V14.841C14.0486 14.2467 15.1176 13.2386 15.7457 11.9916C18.3166 10.2869 20 7.4756 20 4.28571V2.57143C20 2.34411 19.9042 2.1261 19.7337 1.96536C19.5632 1.80462 19.332 1.71431 19.0909 1.71429H16.3636V0.857143C16.3636 0.629821 16.2678 0.411817 16.0973 0.251076C15.9269 0.0903359 15.6956 2.2706e-05 15.4545 0H4.54545ZM5.45455 1.71429H14.5455V9.42857C14.5455 11.8177 12.5339 13.7143 10 13.7143C7.46609 13.7143 5.45455 11.8177 5.45455 9.42857V1.71429ZM1.81818 3.42857H3.63636V9.12891C2.50438 7.80859 1.81818 6.13222 1.81818 4.28571V3.42857ZM16.3636 3.42857H18.1818V4.28571C18.1818 6.13666 17.4992 7.82102 16.3636 9.14397V3.42857ZM9.09091 15.3599C9.38857 15.4003 9.69064 15.4286 10 15.4286C10.3094 15.4286 10.6114 15.4003 10.9091 15.3599V17.1429H9.09091V15.3599ZM4.54545 18.8571H15.4545V22.2857H4.54545V18.8571Z" fill="black"/>
</svg>
