<?xml version="1.0" standalone="no"?>
<!DOCTYPE svg PUBLIC "-//W3C//DTD SVG 20010904//EN"
 "http://www.w3.org/TR/2001/REC-SVG-20010904/DTD/svg10.dtd">
<svg version="1.0" xmlns="http://www.w3.org/2000/svg"
 width="700.000000pt" height="700.000000pt" viewBox="0 0 700.000000 700.000000"
 preserveAspectRatio="xMidYMid meet">
<metadata>
Created by potrace 1.11, written by Peter Selinger 2001-2013
</metadata>
<g transform="translate(0.000000,700.000000) scale(0.100000,-0.100000)"
fill="#000000" stroke="none">
<path d="M3280 6994 c-19 -2 -84 -9 -145 -15 -955 -93 -1835 -591 -2433 -1377
-328 -430 -561 -971 -651 -1514 -38 -226 -45 -320 -45 -588 0 -268 7 -362 45
-588 163 -977 753 -1855 1601 -2383 438 -272 907 -437 1443 -506 196 -25 614
-25 810 0 430 56 786 162 1155 346 729 364 1312 973 1639 1714 144 325 238
675 283 1052 16 139 16 595 0 730 -95 786 -401 1459 -915 2010 -582 625 -1309
996 -2160 1101 -115 14 -550 27 -627 18z m110 -1800 c204 -122 337 -279 401
-469 31 -92 34 -293 6 -395 -30 -109 -96 -231 -142 -262 -54 -38 -129 -51
-192 -35 -104 27 -303 182 -388 302 -107 150 -150 293 -142 470 6 129 34 222
99 322 59 92 119 124 220 120 47 -3 69 -11 138 -53z m1083 -982 c33 -18 64
-46 85 -76 29 -44 32 -55 32 -125 0 -147 -59 -303 -164 -437 -123 -158 -341
-295 -538 -338 -26 -6 -28 -10 -28 -56 0 -28 2 -50 4 -50 2 0 41 20 87 44 168
88 336 129 530 130 122 1 127 0 174 -29 32 -20 57 -45 73 -75 22 -41 23 -53
19 -135 -22 -359 -255 -670 -622 -830 -44 -19 -121 -44 -172 -57 l-93 -22 0
-66 c0 -175 -75 -280 -234 -325 -116 -34 -271 -1 -349 73 -61 58 -81 108 -85
213 l-4 96 -87 18 c-477 98 -823 463 -847 895 -6 87 -4 99 18 140 36 67 98
102 193 108 201 13 463 -56 654 -173 32 -19 61 -35 65 -35 3 0 6 29 6 64 l0
63 -67 18 c-162 42 -333 146 -456 275 -136 142 -209 304 -211 465 -1 105 14
140 82 192 60 45 132 58 252 44 279 -32 511 -150 660 -339 30 -37 57 -71 61
-75 3 -5 27 20 51 55 115 160 294 282 503 343 184 53 322 56 408 7z"/>
<path d="M3207 5002 c-101 -185 -62 -436 94 -605 68 -75 206 -174 221 -159 18
18 67 175 73 238 23 209 -101 418 -326 552 l-36 22 -26 -48z"/>
<path d="M4195 4034 c-199 -44 -382 -165 -468 -311 l-33 -57 45 -31 c54 -36
100 -107 108 -165 5 -39 8 -41 32 -35 41 10 146 61 195 94 171 118 284 294
289 450 l2 66 -50 2 c-27 1 -81 -5 -120 -13z"/>
<path d="M2676 4021 c-8 -13 8 -107 30 -173 49 -150 227 -321 407 -393 37 -15
69 -26 70 -24 2 2 11 30 21 63 18 60 79 139 117 151 27 9 24 18 -21 84 -79
117 -199 203 -359 258 -107 36 -252 55 -265 34z"/>
<path d="M3479 3494 c-32 -10 -49 -21 -57 -39 -9 -19 -12 -215 -12 -736 l0
-711 29 -29 c26 -25 37 -29 86 -29 46 0 60 4 80 25 l25 24 0 724 c0 675 -1
726 -17 746 -25 31 -79 41 -134 25z"/>
<path d="M2476 3111 c-11 -17 15 -164 44 -242 50 -137 145 -263 270 -356 97
-72 251 -141 358 -158 l42 -7 0 236 0 235 -81 70 c-139 118 -319 198 -485 215
-32 4 -78 9 -101 12 -23 3 -44 1 -47 -5z"/>
<path d="M4406 3109 c-178 -19 -357 -91 -487 -196 l-59 -48 0 -252 c0 -203 3
-253 13 -253 28 0 125 34 189 66 273 136 446 376 460 639 3 58 6 57 -116 44z"/>
</g>
</svg>
