<svg width="180" height="40" viewBox="0 0 180 40" fill="none" xmlns="http://www.w3.org/2000/svg">
<path d="M154.372 34.7159C154.82 34.7959 155.2 35.0319 155.512 35.4239C155.824 35.8159 155.98 36.2599 155.98 36.7559C155.98 37.1799 155.868 37.5639 155.644 37.9079C155.428 38.2439 155.112 38.5119 154.696 38.7119C154.28 38.9039 153.796 38.9999 153.244 38.9999H149.908V30.6599H153.088C153.656 30.6599 154.144 30.7559 154.552 30.9479C154.96 31.1399 155.268 31.3999 155.476 31.7279C155.684 32.0479 155.788 32.4079 155.788 32.8079C155.788 33.2879 155.66 33.6879 155.404 34.0079C155.148 34.3279 154.804 34.5639 154.372 34.7159ZM151.276 34.1639H152.968C153.416 34.1639 153.764 34.0639 154.012 33.8639C154.268 33.6559 154.396 33.3599 154.396 32.9759C154.396 32.5999 154.268 32.3079 154.012 32.0999C153.764 31.8839 153.416 31.7759 152.968 31.7759H151.276V34.1639ZM153.124 37.8839C153.588 37.8839 153.952 37.7719 154.216 37.5479C154.48 37.3239 154.612 37.0119 154.612 36.6119C154.612 36.2039 154.472 35.8799 154.192 35.6399C153.912 35.4 153.54 35.2799 153.076 35.2799H151.276V37.8839H153.124Z" fill="#262626"/>
<path d="M158.834 31.7639V34.2119H161.714V35.3279H158.834V37.8839H162.074V38.9999H157.466V30.6479H162.074V31.7639H158.834Z" fill="#262626"/>
<path d="M169.147 30.6599V31.7759H166.927V38.9999H165.559V31.7759H163.327V30.6599H169.147Z" fill="#262626"/>
<path d="M175.561 37.2959H172.069L171.469 38.9999H170.041L173.029 30.6479H174.613L177.601 38.9999H176.161L175.561 37.2959ZM175.177 36.1799L173.821 32.3039L172.453 36.1799H175.177Z" fill="#262626"/>
<path d="M51.7439 17.7559V23.2459C51.7439 23.6179 51.8279 23.8879 51.9959 24.0559C52.1759 24.2119 52.4759 24.2899 52.8959 24.2899H54.1559V25.9999H52.5359C51.6119 25.9999 50.9039 25.7839 50.4119 25.3519C49.9199 24.9199 49.6739 24.2179 49.6739 23.2459V17.7559H48.5039V16.0819H49.6739V13.6159H51.7439V16.0819H54.1559V17.7559H51.7439Z" fill="#06A675"/>
<path d="M61.1772 15.9199C61.9332 15.9199 62.6052 16.0819 63.1932 16.4059C63.7932 16.7299 64.2612 17.2099 64.5972 17.8459C64.9452 18.4819 65.1192 19.2499 65.1192 20.1499V25.9999H63.0852V20.4559C63.0852 19.5679 62.8632 18.8899 62.4192 18.4219C61.9752 17.9419 61.3692 17.7019 60.6012 17.7019C59.8332 17.7019 59.2212 17.9419 58.7652 18.4219C58.3212 18.8899 58.0992 19.5679 58.0992 20.4559V25.9999H56.0472V12.6799H58.0992V17.2339C58.4472 16.8139 58.8852 16.4899 59.4132 16.2619C59.9532 16.0339 60.5412 15.9199 61.1772 15.9199Z" fill="#06A675"/>
<path d="M76.8266 20.7979C76.8266 21.1699 76.8026 21.5059 76.7546 21.8059H69.1766C69.2366 22.5979 69.5306 23.2339 70.0586 23.7139C70.5866 24.1939 71.2346 24.4339 72.0026 24.4339C73.1066 24.4339 73.8866 23.9719 74.3426 23.0479H76.5566C76.2566 23.9599 75.7106 24.7099 74.9186 25.2979C74.1386 25.8739 73.1666 26.1619 72.0026 26.1619C71.0546 26.1619 70.2026 25.9519 69.4466 25.5319C68.7026 25.0999 68.1146 24.4999 67.6826 23.7319C67.2626 22.9519 67.0526 22.0519 67.0526 21.0319C67.0526 20.0119 67.2566 19.1179 67.6646 18.3499C68.0846 17.5699 68.6666 16.9699 69.4106 16.5499C70.1666 16.1299 71.0306 15.9199 72.0026 15.9199C72.9386 15.9199 73.7726 16.1239 74.5046 16.5319C75.2366 16.9399 75.8066 17.5159 76.2146 18.2599C76.6226 18.9919 76.8266 19.8379 76.8266 20.7979ZM74.6846 20.1499C74.6726 19.3939 74.4026 18.7879 73.8746 18.3319C73.3466 17.8759 72.6926 17.6479 71.9126 17.6479C71.2046 17.6479 70.5986 17.8759 70.0946 18.3319C69.5906 18.7759 69.2906 19.3819 69.1946 20.1499H74.6846Z" fill="#06A675"/>
<path d="M87.5178 15.9199C88.2858 15.9199 88.9638 16.0759 89.5518 16.3879C90.1518 16.6879 90.6198 17.0659 90.9558 17.5219V16.0819H93.0258V26.1619C93.0258 27.0739 92.8338 27.8839 92.4498 28.5919C92.0658 29.3119 91.5078 29.8759 90.7758 30.2839C90.0558 30.6919 89.1918 30.8959 88.1838 30.8959C86.8398 30.8959 85.7238 30.5779 84.8358 29.9419C83.9478 29.3179 83.4438 28.4659 83.3238 27.3859H85.3578C85.5138 27.9019 85.8438 28.3159 86.3478 28.6279C86.8638 28.9519 87.4758 29.1139 88.1838 29.1139C89.0118 29.1139 89.6778 28.8619 90.1818 28.3579C90.6978 27.8539 90.9558 27.1219 90.9558 26.1619V24.5059C90.6078 24.9739 90.1338 25.3699 89.5338 25.6939C88.9458 26.0059 88.2738 26.1619 87.5178 26.1619C86.6538 26.1619 85.8618 25.9459 85.1418 25.5139C84.4338 25.0699 83.8698 24.4579 83.4498 23.6779C83.0418 22.8859 82.8378 21.9919 82.8378 20.9959C82.8378 19.9999 83.0418 19.1179 83.4498 18.3499C83.8698 17.5819 84.4338 16.9879 85.1418 16.5679C85.8618 16.1359 86.6538 15.9199 87.5178 15.9199ZM90.9558 21.0319C90.9558 20.3479 90.8118 19.7539 90.5238 19.2499C90.2478 18.7459 89.8818 18.3619 89.4258 18.0979C88.9698 17.8339 88.4778 17.7019 87.9498 17.7019C87.4218 17.7019 86.9298 17.8339 86.4738 18.0979C86.0178 18.3499 85.6458 18.7279 85.3578 19.2319C85.0818 19.7239 84.9438 20.3119 84.9438 20.9959C84.9438 21.6799 85.0818 22.2799 85.3578 22.7959C85.6458 23.3119 86.0178 23.7079 86.4738 23.9839C86.9418 24.2479 87.4338 24.3799 87.9498 24.3799C88.4778 24.3799 88.9698 24.2479 89.4258 23.9839C89.8818 23.7199 90.2478 23.3359 90.5238 22.8319C90.8118 22.3159 90.9558 21.7159 90.9558 21.0319Z" fill="#06A675"/>
<path d="M96.765 14.7679C96.393 14.7679 96.081 14.6419 95.829 14.3899C95.577 14.1379 95.451 13.8259 95.451 13.4539C95.451 13.0819 95.577 12.7699 95.829 12.5179C96.081 12.2659 96.393 12.1399 96.765 12.1399C97.125 12.1399 97.431 12.2659 97.683 12.5179C97.935 12.7699 98.061 13.0819 98.061 13.4539C98.061 13.8259 97.935 14.1379 97.683 14.3899C97.431 14.6419 97.125 14.7679 96.765 14.7679ZM97.773 16.0819V25.9999H95.721V16.0819H97.773Z" fill="#06A675"/>
<path d="M104.301 24.1639L107.109 16.0819H109.287L105.507 25.9999H103.059L99.2971 16.0819H101.493L104.301 24.1639Z" fill="#06A675"/>
<path d="M111.882 14.7679C111.51 14.7679 111.198 14.6419 110.946 14.3899C110.694 14.1379 110.568 13.8259 110.568 13.4539C110.568 13.0819 110.694 12.7699 110.946 12.5179C111.198 12.2659 111.51 12.1399 111.882 12.1399C112.242 12.1399 112.548 12.2659 112.8 12.5179C113.052 12.7699 113.178 13.0819 113.178 13.4539C113.178 13.8259 113.052 14.1379 112.8 14.3899C112.548 14.6419 112.242 14.7679 111.882 14.7679ZM112.89 16.0819V25.9999H110.838V16.0819H112.89Z" fill="#06A675"/>
<path d="M120.588 15.9199C121.368 15.9199 122.064 16.0819 122.676 16.4059C123.3 16.7299 123.786 17.2099 124.134 17.8459C124.482 18.4819 124.656 19.2499 124.656 20.1499V25.9999H122.622V20.4559C122.622 19.5679 122.4 18.8899 121.956 18.4219C121.512 17.9419 120.906 17.7019 120.138 17.7019C119.37 17.7019 118.758 17.9419 118.302 18.4219C117.858 18.8899 117.636 19.5679 117.636 20.4559V25.9999H115.584V16.0819H117.636V17.2159C117.972 16.8079 118.398 16.4899 118.914 16.2619C119.442 16.0339 120 15.9199 120.588 15.9199Z" fill="#06A675"/>
<path d="M131.27 15.9199C132.038 15.9199 132.716 16.0759 133.304 16.3879C133.904 16.6879 134.372 17.0659 134.708 17.5219V16.0819H136.778V26.1619C136.778 27.0739 136.586 27.8839 136.202 28.5919C135.818 29.3119 135.26 29.8759 134.528 30.2839C133.808 30.6919 132.944 30.8959 131.936 30.8959C130.592 30.8959 129.476 30.5779 128.588 29.9419C127.7 29.3179 127.196 28.4659 127.076 27.3859H129.11C129.266 27.9019 129.596 28.3159 130.1 28.6279C130.616 28.9519 131.228 29.1139 131.936 29.1139C132.764 29.1139 133.43 28.8619 133.934 28.3579C134.45 27.8539 134.708 27.1219 134.708 26.1619V24.5059C134.36 24.9739 133.886 25.3699 133.286 25.6939C132.698 26.0059 132.026 26.1619 131.27 26.1619C130.406 26.1619 129.614 25.9459 128.894 25.5139C128.186 25.0699 127.622 24.4579 127.202 23.6779C126.794 22.8859 126.59 21.9919 126.59 20.9959C126.59 19.9999 126.794 19.1179 127.202 18.3499C127.622 17.5819 128.186 16.9879 128.894 16.5679C129.614 16.1359 130.406 15.9199 131.27 15.9199ZM134.708 21.0319C134.708 20.3479 134.564 19.7539 134.276 19.2499C134 18.7459 133.634 18.3619 133.178 18.0979C132.722 17.8339 132.23 17.7019 131.702 17.7019C131.174 17.7019 130.682 17.8339 130.226 18.0979C129.77 18.3499 129.398 18.7279 129.11 19.2319C128.834 19.7239 128.696 20.3119 128.696 20.9959C128.696 21.6799 128.834 22.2799 129.11 22.7959C129.398 23.3119 129.77 23.7079 130.226 23.9839C130.694 24.2479 131.186 24.3799 131.702 24.3799C132.23 24.3799 132.722 24.2479 133.178 23.9839C133.634 23.7199 134 23.3359 134.276 22.8319C134.564 22.3159 134.708 21.7159 134.708 21.0319Z" fill="#06A675"/>
<path d="M146.543 17.7559V23.2459C146.543 23.6179 146.627 23.8879 146.795 24.0559C146.975 24.2119 147.275 24.2899 147.695 24.2899H148.955V25.9999H147.335C146.411 25.9999 145.703 25.7839 145.211 25.3519C144.719 24.9199 144.473 24.2179 144.473 23.2459V17.7559H143.303V16.0819H144.473V13.6159H146.543V16.0819H148.955V17.7559H146.543Z" fill="#06A675"/>
<path d="M152.898 17.5219C153.198 17.0179 153.594 16.6279 154.086 16.3519C154.59 16.0639 155.184 15.9199 155.868 15.9199V18.0439H155.346C154.542 18.0439 153.93 18.2479 153.51 18.6559C153.102 19.0639 152.898 19.7719 152.898 20.7799V25.9999H150.846V16.0819H152.898V17.5219Z" fill="#06A675"/>
<path d="M166.844 20.7979C166.844 21.1699 166.82 21.5059 166.772 21.8059H159.194C159.254 22.5979 159.548 23.2339 160.076 23.7139C160.604 24.1939 161.252 24.4339 162.02 24.4339C163.124 24.4339 163.904 23.9719 164.36 23.0479H166.574C166.274 23.9599 165.728 24.7099 164.936 25.2979C164.156 25.8739 163.184 26.1619 162.02 26.1619C161.072 26.1619 160.22 25.9519 159.464 25.5319C158.72 25.0999 158.132 24.4999 157.7 23.7319C157.28 22.9519 157.07 22.0519 157.07 21.0319C157.07 20.0119 157.274 19.1179 157.682 18.3499C158.102 17.5699 158.684 16.9699 159.428 16.5499C160.184 16.1299 161.048 15.9199 162.02 15.9199C162.956 15.9199 163.79 16.1239 164.522 16.5319C165.254 16.9399 165.824 17.5159 166.232 18.2599C166.64 18.9919 166.844 19.8379 166.844 20.7979ZM164.702 20.1499C164.69 19.3939 164.42 18.7879 163.892 18.3319C163.364 17.8759 162.71 17.6479 161.93 17.6479C161.222 17.6479 160.616 17.8759 160.112 18.3319C159.608 18.7759 159.308 19.3819 159.212 20.1499H164.702Z" fill="#06A675"/>
<path d="M177.954 20.7979C177.954 21.1699 177.93 21.5059 177.882 21.8059H170.304C170.364 22.5979 170.658 23.2339 171.186 23.7139C171.714 24.1939 172.362 24.4339 173.13 24.4339C174.234 24.4339 175.014 23.9719 175.47 23.0479H177.684C177.384 23.9599 176.838 24.7099 176.046 25.2979C175.266 25.8739 174.294 26.1619 173.13 26.1619C172.182 26.1619 171.33 25.9519 170.574 25.5319C169.83 25.0999 169.242 24.4999 168.81 23.7319C168.39 22.9519 168.18 22.0519 168.18 21.0319C168.18 20.0119 168.384 19.1179 168.792 18.3499C169.212 17.5699 169.794 16.9699 170.538 16.5499C171.294 16.1299 172.158 15.9199 173.13 15.9199C174.066 15.9199 174.9 16.1239 175.632 16.5319C176.364 16.9399 176.934 17.5159 177.342 18.2599C177.75 18.9919 177.954 19.8379 177.954 20.7979ZM175.812 20.1499C175.8 19.3939 175.53 18.7879 175.002 18.3319C174.474 17.8759 173.82 17.6479 173.04 17.6479C172.332 17.6479 171.726 17.8759 171.222 18.3319C170.718 18.7759 170.418 19.3819 170.322 20.1499H175.812Z" fill="#06A675"/>
<path d="M20 40C31.0457 40 40 31.0457 40 20C40 8.95431 31.0457 0 20 0C8.95431 0 0 8.95431 0 20C0 31.0457 8.95431 40 20 40Z" fill="#06A675"/>
<path d="M18.5348 10.0004C18.3801 9.99671 18.2304 10.0208 18.0914 10.0613C17.8204 10.1403 17.5663 10.2994 17.4062 10.5643C16.6806 11.5995 16.5418 12.8752 16.9653 14.1087C17.4029 15.3834 18.4283 16.2699 19.5339 16.8737L19.5588 16.8868L19.5862 16.8999C19.9039 17.0387 20.2251 17.0244 20.503 16.9434C20.781 16.8624 21.0493 16.7051 21.2081 16.4274C21.7754 15.4359 22.0704 14.174 21.6317 12.896C21.194 11.6213 20.1661 10.7348 19.0605 10.131L19.0356 10.1179L19.0082 10.1049C18.8494 10.0355 18.6896 10.004 18.5348 10.0004ZM18.4875 11.1521C19.3696 11.655 20.0943 12.301 20.4084 13.2161C20.7246 14.1372 20.5207 15.0686 20.097 15.8461C19.2198 15.344 18.4989 14.7 18.186 13.7887C17.8524 12.8167 17.9727 11.8908 18.4875 11.1521H18.4875ZM24.8456 15.7307C23.5086 15.7307 22.1003 16.229 21.0786 17.1219C20.6555 17.4917 20.3376 17.8973 20.0895 18.3237C19.8516 17.9389 19.5607 17.5699 19.1751 17.233C18.1534 16.3401 16.7451 15.8439 15.4081 15.8439C15.0751 15.8439 14.7314 15.9373 14.4564 16.1509C14.1814 16.3645 14.003 16.7074 14.003 17.0697C14.003 18.2381 14.5947 19.3764 15.595 20.2506C16.3298 20.8927 17.2143 21.3537 18.2135 21.5503V22.3385C17.0301 21.4814 15.6121 21.0822 14.1325 21.0822C13.7995 21.0822 13.4587 21.1878 13.2182 21.3979C12.9777 21.6081 12.8569 21.9059 12.8569 22.197C12.8569 23.5583 13.4189 25.0372 14.7006 26.1573C15.729 27.056 16.9303 27.5467 18.2135 27.7161V28.3279C18.2135 28.7862 18.3995 29.222 18.7516 29.5297C19.1037 29.8374 19.6024 30 20.1269 30C20.6513 30 21.15 29.8374 21.5021 29.5297C21.8542 29.222 22.0403 28.7862 22.0403 28.3279V27.6748C23.226 27.4741 24.3372 26.9956 25.2965 26.1573C26.5782 25.0372 27.1426 23.5583 27.1426 22.197C27.1426 21.9059 27.0219 21.6081 26.7814 21.3979C26.5409 21.1878 26.2001 21.0822 25.867 21.0822C24.4913 21.0822 23.1705 21.4314 22.0403 22.1687V21.5503C23.0394 21.3537 23.9239 20.8927 24.6587 20.2506C25.659 19.3764 26.2507 18.222 26.2507 16.9587C26.2507 16.6057 26.0684 16.316 25.8247 16.103C25.581 15.89 25.2495 15.7307 24.8456 15.7307H24.8456ZM24.8456 16.8454C24.8243 16.8454 24.8795 16.8534 24.9228 16.8912C24.9661 16.929 24.9751 16.9772 24.9751 16.9587C24.9751 17.9248 24.5424 18.776 23.7568 19.4624C23.2262 19.9262 22.6535 20.2476 22.0278 20.416C22.0003 19.9987 21.8258 19.6059 21.5021 19.3231C21.3845 19.2203 21.2468 19.1403 21.101 19.0705C21.3119 18.6433 21.5815 18.2587 21.9805 17.9101C22.7445 17.2424 23.8865 16.8454 24.8456 16.8454H24.8456ZM15.4081 16.9587C16.3672 16.9587 17.5092 17.3534 18.2732 18.0211C18.6441 18.3452 18.9052 18.6993 19.1104 19.0901C18.9806 19.1561 18.858 19.2301 18.7516 19.3231C18.4279 19.6059 18.2534 19.9987 18.2259 20.416C17.6002 20.2476 17.0275 19.9262 16.4969 19.4624C15.7113 18.7759 15.2786 17.9078 15.2786 17.0697C15.2786 16.9861 15.2915 16.9941 15.3035 16.9848C15.3155 16.9754 15.3585 16.9587 15.4081 16.9587H15.4081ZM20.1269 19.9675C20.3678 19.9675 20.5058 20.0287 20.6002 20.1112C20.6946 20.1937 20.7647 20.3143 20.7647 20.5249V28.3279C20.7647 28.5385 20.6946 28.6591 20.6002 28.7416C20.5058 28.8241 20.3678 28.8853 20.1269 28.8853C19.8859 28.8853 19.7479 28.8241 19.6535 28.7416C19.5591 28.6591 19.4891 28.5385 19.4891 28.3279V20.5249C19.4891 20.4196 19.5071 20.3369 19.5364 20.2702C19.5657 20.2034 19.6063 20.1525 19.6535 20.1112C19.6838 20.0847 19.7293 20.0667 19.7706 20.0459L20.1269 19.9675ZM14.1325 22.197C15.5215 22.197 16.7314 22.5826 17.7625 23.4837L18.1462 23.8168C18.1672 23.8356 18.1896 23.853 18.2134 23.869V26.5883C17.2575 26.4344 16.4045 26.07 15.6025 25.3691C14.588 24.4827 14.1325 23.288 14.1325 22.197ZM25.867 22.197C25.867 23.288 25.409 24.4827 24.3946 25.3691C23.6636 26.0079 22.8936 26.3698 22.0403 26.547V23.6535L22.2371 23.4837C23.2682 22.5826 24.4781 22.197 25.867 22.197Z" fill="white"/>
</svg>
