<svg viewBox="0 13 248 61" fill="none" xmlns="http://www.w3.org/2000/svg">
<path d="M75.8213 37.058V52.5853H73.0908V37.058H68.9307V34.4916H79.9697V37.058H75.8213ZM81.9033 32.7924H84.54V42.1205C85.4775 41.2767 86.5127 40.8549 87.6455 40.8549C88.9346 40.8549 89.9658 41.2728 90.7393 42.1088C91.3955 42.8353 91.7236 43.9955 91.7236 45.5892V52.5853H89.0869V45.8353C89.0869 44.9213 88.9229 44.2611 88.5947 43.8549C88.2744 43.4408 87.7549 43.2338 87.0361 43.2338C86.1143 43.2338 85.4658 43.5189 85.0908 44.0892C84.7236 44.6674 84.54 45.6595 84.54 47.0658V52.5853H81.9033V32.7924ZM105.47 47.4994H97.29C97.3604 48.4369 97.665 49.183 98.2041 49.7377C98.7432 50.2845 99.4346 50.558 100.278 50.558C100.935 50.558 101.478 50.4017 101.907 50.0892C102.329 49.7767 102.81 49.1986 103.349 48.3549L105.575 49.597C105.231 50.183 104.868 50.6869 104.485 51.1088C104.103 51.5228 103.692 51.8666 103.255 52.14C102.817 52.4056 102.345 52.601 101.837 52.726C101.329 52.851 100.778 52.9135 100.185 52.9135C98.4814 52.9135 97.1143 52.3666 96.083 51.2728C95.0518 50.1713 94.5361 48.7103 94.5361 46.89C94.5361 45.0853 95.0361 43.6244 96.0361 42.5072C97.0439 41.4056 98.3799 40.8549 100.044 40.8549C101.724 40.8549 103.052 41.39 104.028 42.4603C104.997 43.5228 105.481 44.9955 105.481 46.8783L105.47 47.4994ZM102.763 45.3431C102.396 43.9369 101.509 43.2338 100.103 43.2338C99.7822 43.2338 99.4814 43.2845 99.2002 43.3861C98.9189 43.4799 98.6611 43.6205 98.4268 43.808C98.2002 43.9877 98.0049 44.2064 97.8408 44.4642C97.6768 44.722 97.5518 45.015 97.4658 45.3431H102.763ZM125.579 43.1635H133.056V43.7611C133.056 45.1205 132.896 46.3236 132.575 47.3705C132.263 48.3392 131.735 49.2455 130.993 50.0892C129.313 51.9799 127.177 52.9252 124.583 52.9252C122.052 52.9252 119.884 52.0111 118.079 50.183C116.274 48.347 115.372 46.1439 115.372 43.5736C115.372 40.9486 116.29 38.722 118.126 36.8939C119.962 35.058 122.196 34.14 124.829 34.14C126.243 34.14 127.563 34.4291 128.79 35.0072C129.962 35.5853 131.114 36.5228 132.247 37.8197L130.302 39.683C128.817 37.7064 127.009 36.7181 124.876 36.7181C122.962 36.7181 121.356 37.3783 120.06 38.6986C118.763 39.9955 118.114 41.6205 118.114 43.5736C118.114 45.5892 118.837 47.2494 120.282 48.5541C121.634 49.765 123.099 50.3705 124.677 50.3705C126.021 50.3705 127.228 49.9174 128.298 49.0111C129.368 48.097 129.966 47.0033 130.091 45.7299H125.579V43.1635ZM138.634 41.1713V52.5853H135.997V41.1713H138.634ZM135.599 36.4252C135.599 35.9642 135.767 35.5658 136.103 35.2299C136.438 34.8939 136.841 34.726 137.31 34.726C137.786 34.726 138.192 34.8939 138.528 35.2299C138.864 35.558 139.032 35.9603 139.032 36.4369C139.032 36.9135 138.864 37.3197 138.528 37.6556C138.2 37.9916 137.798 38.1595 137.321 38.1595C136.845 38.1595 136.438 37.9916 136.103 37.6556C135.767 37.3197 135.599 36.9095 135.599 36.4252ZM143.392 41.1713L146.345 47.5814L149.286 41.1713H152.251L146.321 53.3705L140.438 41.1713H143.392ZM156.681 41.1713V52.5853H154.044V41.1713H156.681ZM153.646 36.4252C153.646 35.9642 153.813 35.5658 154.149 35.2299C154.485 34.8939 154.888 34.726 155.356 34.726C155.833 34.726 156.239 34.8939 156.575 35.2299C156.911 35.558 157.079 35.9603 157.079 36.4369C157.079 36.9135 156.911 37.3197 156.575 37.6556C156.247 37.9916 155.845 38.1595 155.368 38.1595C154.892 38.1595 154.485 37.9916 154.149 37.6556C153.813 37.3197 153.646 36.9095 153.646 36.4252ZM160.021 41.1713H162.669V42.226C163.591 41.3119 164.63 40.8549 165.786 40.8549C167.114 40.8549 168.149 41.2728 168.892 42.1088C169.532 42.8197 169.853 43.9799 169.853 45.5892V52.5853H167.204V46.2103C167.204 45.0853 167.048 44.308 166.735 43.8783C166.431 43.4408 165.876 43.222 165.071 43.222C164.196 43.222 163.575 43.5111 163.208 44.0892C162.849 44.6595 162.669 45.6556 162.669 47.0775V52.5853H160.021V41.1713ZM184.231 52.3158C184.231 52.8549 184.212 53.3275 184.173 53.7338C184.142 54.1478 184.095 54.5111 184.032 54.8236C183.845 55.683 183.478 56.4213 182.931 57.0385C181.899 58.226 180.481 58.8197 178.677 58.8197C177.153 58.8197 175.899 58.4095 174.915 57.5892C173.899 56.7455 173.313 55.5775 173.157 54.0853H175.806C175.907 54.6478 176.075 55.0814 176.31 55.3861C176.856 56.097 177.653 56.4525 178.7 56.4525C180.63 56.4525 181.595 55.2689 181.595 52.9017V51.308C180.548 52.3783 179.341 52.9135 177.974 52.9135C176.419 52.9135 175.146 52.351 174.153 51.226C173.153 50.0853 172.653 48.6595 172.653 46.9486C172.653 45.2845 173.118 43.8705 174.048 42.7064C175.048 41.472 176.368 40.8549 178.009 40.8549C179.446 40.8549 180.642 41.39 181.595 42.4603V41.1713H184.231V52.3158ZM181.7 46.9017C181.7 45.7924 181.403 44.9056 180.81 44.2416C180.208 43.5619 179.438 43.222 178.501 43.222C177.501 43.222 176.712 43.5931 176.134 44.3353C175.61 44.9994 175.349 45.8588 175.349 46.9135C175.349 47.9525 175.61 48.8041 176.134 49.4681C176.704 50.1947 177.493 50.558 178.501 50.558C179.509 50.558 180.306 50.1908 180.892 49.4564C181.431 48.7924 181.7 47.9408 181.7 46.9017ZM200.462 37.058V52.5853H197.731V37.058H193.571V34.4916H204.61V37.058H200.462ZM205.724 41.1713H208.36V42.1908C208.845 41.683 209.274 41.3353 209.649 41.1478C210.032 40.9525 210.485 40.8549 211.009 40.8549C211.704 40.8549 212.431 41.0814 213.188 41.5345L211.981 43.9486C211.481 43.5892 210.993 43.4095 210.517 43.4095C209.079 43.4095 208.36 44.4955 208.36 46.6674V52.5853H205.724V41.1713ZM224.931 47.4994H216.751C216.821 48.4369 217.126 49.183 217.665 49.7377C218.204 50.2845 218.896 50.558 219.739 50.558C220.396 50.558 220.938 50.4017 221.368 50.0892C221.79 49.7767 222.271 49.1986 222.81 48.3549L225.036 49.597C224.692 50.183 224.329 50.6869 223.946 51.1088C223.563 51.5228 223.153 51.8666 222.716 52.14C222.278 52.4056 221.806 52.601 221.298 52.726C220.79 52.851 220.239 52.9135 219.646 52.9135C217.942 52.9135 216.575 52.3666 215.544 51.2728C214.513 50.1713 213.997 48.7103 213.997 46.89C213.997 45.0853 214.497 43.6244 215.497 42.5072C216.505 41.4056 217.841 40.8549 219.505 40.8549C221.185 40.8549 222.513 41.39 223.489 42.4603C224.458 43.5228 224.942 44.9955 224.942 46.8783L224.931 47.4994ZM222.224 45.3431C221.856 43.9369 220.97 43.2338 219.563 43.2338C219.243 43.2338 218.942 43.2845 218.661 43.3861C218.38 43.4799 218.122 43.6205 217.888 43.808C217.661 43.9877 217.466 44.2064 217.302 44.4642C217.138 44.722 217.013 45.015 216.927 45.3431H222.224ZM238.22 47.4994H230.04C230.11 48.4369 230.415 49.183 230.954 49.7377C231.493 50.2845 232.185 50.558 233.028 50.558C233.685 50.558 234.228 50.4017 234.657 50.0892C235.079 49.7767 235.56 49.1986 236.099 48.3549L238.325 49.597C237.981 50.183 237.618 50.6869 237.235 51.1088C236.853 51.5228 236.442 51.8666 236.005 52.14C235.567 52.4056 235.095 52.601 234.587 52.726C234.079 52.851 233.528 52.9135 232.935 52.9135C231.231 52.9135 229.864 52.3666 228.833 51.2728C227.802 50.1713 227.286 48.7103 227.286 46.89C227.286 45.0853 227.786 43.6244 228.786 42.5072C229.794 41.4056 231.13 40.8549 232.794 40.8549C234.474 40.8549 235.802 41.39 236.778 42.4603C237.747 43.5228 238.231 44.9955 238.231 46.8783L238.22 47.4994ZM235.513 45.3431C235.146 43.9369 234.259 43.2338 232.853 43.2338C232.532 43.2338 232.231 43.2845 231.95 43.3861C231.669 43.4799 231.411 43.6205 231.177 43.808C230.95 43.9877 230.755 44.2064 230.591 44.4642C230.427 44.722 230.302 45.015 230.216 45.3431H235.513Z" fill="#A9C036"/>
<path d="M33.8182 73.2073C49.6656 73.2073 62.5125 59.9069 62.5125 43.5C62.5125 27.0931 49.6656 13.7927 33.8182 13.7927C17.9709 13.7927 5.12402 27.0931 5.12402 43.5C5.12402 59.9069 17.9709 73.2073 33.8182 73.2073Z" fill="#A9C036"/>
<path d="M31.7165 28.6468C31.4945 28.6414 31.2796 28.6773 31.0802 28.7374C30.6914 28.8547 30.3269 29.091 30.0972 29.4844C29.0562 31.0222 28.857 32.9171 29.4646 34.7492C30.0924 36.6427 31.5637 37.9594 33.1498 38.8563L33.1856 38.8757L33.2249 38.8951C33.6807 39.1013 34.1415 39.0801 34.5403 38.9598C34.9391 38.8395 35.3239 38.6058 35.5518 38.1934C36.3657 36.7207 36.7889 34.8462 36.1595 32.948C35.5317 31.0545 34.0568 29.7378 32.4707 28.8409L32.4349 28.8215L32.3956 28.8021C32.1677 28.699 31.9385 28.6523 31.7165 28.6468ZM31.6486 30.3576C32.9141 31.1045 33.9538 32.0642 34.4045 33.4233C34.8581 34.7915 34.5656 36.1751 33.9576 37.3299C32.6992 36.5842 31.6649 35.6275 31.216 34.2739C30.7373 32.8301 30.9099 31.4548 31.6486 30.3576H31.6486ZM40.7705 37.1585C38.8523 37.1585 36.8319 37.8987 35.366 39.225C34.7589 39.7742 34.3029 40.3767 33.9469 41.0101C33.6056 40.4385 33.1883 39.8904 32.6351 39.3899C31.1692 38.0636 29.1488 37.3267 27.2305 37.3267C26.7527 37.3267 26.2597 37.4653 25.8651 37.7827C25.4705 38.1 25.2146 38.6093 25.2146 39.1474C25.2146 40.8829 26.0635 42.5737 27.4986 43.8721C28.5529 44.8259 29.8218 45.5107 31.2554 45.8028V46.9735C29.5576 45.7004 27.5232 45.1075 25.4004 45.1075C24.9226 45.1075 24.4336 45.2643 24.0886 45.5764C23.7436 45.8885 23.5703 46.3309 23.5703 46.7633C23.5703 48.7853 24.3766 50.9821 26.2154 52.6458C27.691 53.9807 29.4144 54.7095 31.2554 54.9612V55.87C31.2554 56.5507 31.5223 57.1981 32.0274 57.6551C32.5326 58.1121 33.2482 58.3536 34.0005 58.3536C34.7529 58.3536 35.4685 58.1121 35.9736 57.6551C36.4788 57.1981 36.7457 56.5507 36.7457 55.87V54.8998C38.4469 54.6017 40.0411 53.891 41.4175 52.6458C43.2563 50.9821 44.0662 48.7853 44.0662 46.7633C44.0662 46.3309 43.8929 45.8885 43.5479 45.5764C43.2029 45.2643 42.7139 45.1075 42.2361 45.1075C40.2623 45.1075 38.3672 45.6262 36.7457 46.7212V45.8028C38.1792 45.5107 39.4482 44.8259 40.5025 43.8721C41.9376 42.5737 42.7865 40.859 42.7865 38.9824C42.7865 38.4581 42.525 38.0279 42.1753 37.7115C41.8256 37.3952 41.3501 37.1585 40.7705 37.1585H40.7705ZM40.7705 38.8143C40.74 38.8143 40.8192 38.826 40.8814 38.8822C40.9434 38.9384 40.9564 39.01 40.9564 38.9825C40.9564 40.4175 40.3355 41.6818 39.2085 42.7015C38.4471 43.3903 37.6256 43.8677 36.7278 44.1179C36.6884 43.498 36.438 42.9146 35.9736 42.4945C35.8049 42.3418 35.6074 42.223 35.3981 42.1194C35.7007 41.4848 36.0876 40.9135 36.6599 40.3957C37.7561 39.4039 39.3946 38.8143 40.7705 38.8143H40.7705ZM27.2305 38.9824C28.6065 38.9824 30.2449 39.5688 31.3412 40.5606C31.8732 41.042 32.2478 41.568 32.5422 42.1485C32.356 42.2465 32.18 42.3564 32.0274 42.4945C31.5631 42.9146 31.3127 43.498 31.2732 44.1179C30.3755 43.8677 29.5539 43.3903 28.7926 42.7015C27.6656 41.6818 27.0447 40.3923 27.0447 39.1474C27.0447 39.0232 27.0632 39.0351 27.0804 39.0213C27.0976 39.0073 27.1594 38.9824 27.2305 38.9824H27.2305ZM34.0005 43.4517C34.3462 43.4517 34.5443 43.5427 34.6797 43.6652C34.8151 43.7877 34.9156 43.9668 34.9156 44.2796V55.87C34.9156 56.1827 34.8151 56.3619 34.6797 56.4844C34.5443 56.6069 34.3462 56.6979 34.0005 56.6979C33.6549 56.6979 33.4568 56.6069 33.3214 56.4844C33.186 56.3619 33.0855 56.1827 33.0855 55.87V44.2796C33.0855 44.1232 33.1113 44.0004 33.1534 43.9012C33.1955 43.802 33.2537 43.7264 33.3214 43.6652C33.3649 43.6258 33.4302 43.599 33.4894 43.5681L34.0005 43.4517ZM25.4004 46.7633C27.3932 46.7633 29.129 47.3361 30.6084 48.6745L31.1589 49.1693C31.189 49.1972 31.2212 49.2231 31.2554 49.2469V53.2861C29.8839 53.0574 28.6601 52.5162 27.5094 51.4751C26.054 50.1583 25.4004 48.3839 25.4004 46.7633ZM42.2361 46.7633C42.2361 48.3839 41.579 50.1583 40.1236 51.4751C39.0748 52.424 37.97 52.9614 36.7457 53.2246V48.9267L37.0281 48.6745C38.5074 47.3361 40.2433 46.7633 42.2361 46.7633Z" fill="white"/>
<path d="M210.959 58.504H213.911C214.279 58.504 214.619 58.548 214.931 58.636C215.251 58.724 215.523 58.856 215.747 59.032C215.979 59.2 216.159 59.42 216.287 59.692C216.423 59.956 216.491 60.268 216.491 60.628C216.491 61.116 216.355 61.516 216.083 61.828C215.811 62.132 215.459 62.356 215.027 62.5V62.524C215.283 62.54 215.523 62.608 215.747 62.728C215.971 62.84 216.163 62.992 216.323 63.184C216.491 63.368 216.623 63.584 216.719 63.832C216.815 64.08 216.863 64.348 216.863 64.636C216.863 65.02 216.783 65.36 216.623 65.656C216.471 65.944 216.259 66.188 215.987 66.388C215.715 66.588 215.399 66.74 215.039 66.844C214.679 66.948 214.291 67 213.875 67H210.959V58.504ZM212.111 62.032H213.683C213.899 62.032 214.103 62.012 214.295 61.972C214.487 61.924 214.655 61.848 214.799 61.744C214.943 61.64 215.055 61.508 215.135 61.348C215.223 61.188 215.267 60.992 215.267 60.76C215.267 60.424 215.159 60.132 214.943 59.884C214.727 59.636 214.387 59.512 213.923 59.512H212.111V62.032ZM212.111 65.992H213.803C213.979 65.992 214.171 65.976 214.379 65.944C214.595 65.904 214.795 65.832 214.979 65.728C215.163 65.616 215.319 65.468 215.447 65.284C215.575 65.1 215.639 64.856 215.639 64.552C215.639 64.048 215.475 63.672 215.147 63.424C214.819 63.168 214.375 63.04 213.815 63.04H212.111V65.992ZM218.518 58.504H224.002V59.584H219.67V62.116H223.702V63.196H219.67V65.92H224.218V67H218.518V58.504ZM227.63 59.584H224.894V58.504H231.518V59.584H228.782V67H227.63V59.584ZM234.307 58.504H235.351L238.987 67H237.643L236.791 64.9H232.747L231.907 67H230.563L234.307 58.504ZM236.371 63.892L234.787 59.992H234.763L233.155 63.892H236.371Z" fill="#232735"/>
</svg>
