<svg width="68" height="56" viewBox="0 0 68 56" fill="none" xmlns="http://www.w3.org/2000/svg">
<g clip-path="url(#clip0)">
<path d="M28 56C43.464 56 56 43.464 56 28C56 12.536 43.464 0 28 0C12.536 0 0 12.536 0 28C0 43.464 12.536 56 28 56Z" fill="#A9C036"/>
<path d="M25.9491 14.0005C25.7324 13.9954 25.5228 14.0292 25.3282 14.0859C24.9488 14.1964 24.5932 14.4191 24.369 14.79C23.3532 16.2393 23.1588 18.0253 23.7517 19.7522C24.3643 21.5368 25.8 22.7779 27.3478 23.6232L27.3826 23.6415L27.421 23.6598C27.8658 23.8542 28.3154 23.8341 28.7046 23.7208C29.0937 23.6074 29.4693 23.3871 29.6917 22.9984C30.4859 21.6103 30.8988 19.8436 30.2846 18.0544C29.672 16.2698 28.2328 15.0288 26.685 14.1834L26.6502 14.1651L26.6118 14.1468C26.3894 14.0496 26.1657 14.0056 25.9491 14.0005ZM25.8828 15.6129C27.1178 16.3169 28.1322 17.2215 28.572 18.5025C29.0147 19.792 28.7293 21.0961 28.136 22.1846C26.9081 21.4817 25.8987 20.58 25.4608 19.3041C24.9936 17.9434 25.162 16.6471 25.8828 15.6129H25.8828ZM34.7841 22.023C32.9123 22.023 30.9408 22.7206 29.5103 23.9707C28.9179 24.4884 28.4729 25.0562 28.1256 25.6532C27.7925 25.1144 27.3853 24.5979 26.8455 24.1262C25.415 22.8761 23.4435 22.1815 21.5717 22.1815C21.1054 22.1815 20.6243 22.3122 20.2393 22.6113C19.8543 22.9104 19.6045 23.3904 19.6045 23.8976C19.6045 25.5333 20.4329 27.127 21.8333 28.3508C22.862 29.2498 24.1003 29.8952 25.4991 30.1705V31.2739C23.8424 30.0739 21.8573 29.5151 19.7858 29.5151C19.3195 29.5151 18.8424 29.6629 18.5058 29.9571C18.1691 30.2513 18 30.6683 18 31.0757C18 32.9816 18.7868 35.0521 20.5811 36.6202C22.021 37.8784 23.7027 38.5653 25.4991 38.8026V39.6591C25.4991 40.3007 25.7596 40.9109 26.2525 41.3416C26.7454 41.7724 27.4437 42 28.1779 42C28.9121 42 29.6103 41.7724 30.1032 41.3416C30.5962 40.9109 30.8566 40.3007 30.8566 39.6591V38.7447C32.5166 38.4637 34.0723 37.7939 35.4154 36.6202C37.2097 35.0521 38 32.9816 38 31.0757C38 30.6683 37.8309 30.2513 37.4942 29.9571C37.1576 29.6629 36.6805 29.5151 36.2142 29.5151C34.2881 29.5151 32.4389 30.004 30.8566 31.0361V30.1705C32.2555 29.8952 33.4938 29.2498 34.5225 28.3508C35.9229 27.127 36.7513 25.5108 36.7513 23.7421C36.7513 23.2479 36.4961 22.8424 36.1549 22.5442C35.8137 22.246 35.3496 22.023 34.7841 22.023H34.7841ZM34.7841 23.5836C34.7543 23.5836 34.8316 23.5947 34.8922 23.6476C34.9528 23.7006 34.9655 23.7681 34.9655 23.7421C34.9655 25.0946 34.3596 26.2863 33.2598 27.2474C32.5169 27.8966 31.7152 28.3466 30.8392 28.5824C30.8007 27.9982 30.5564 27.4483 30.1032 27.0523C29.9386 26.9084 29.7459 26.7964 29.5417 26.6987C29.8369 26.1006 30.2144 25.5622 30.7729 25.0741C31.8426 24.1393 33.4414 23.5836 34.7841 23.5836H34.7841ZM21.5717 23.7421C22.9144 23.7421 24.5131 24.2948 25.5828 25.2296C26.102 25.6833 26.4676 26.1791 26.7548 26.7262C26.5731 26.8185 26.4014 26.9222 26.2525 27.0523C25.7994 27.4483 25.5551 27.9982 25.5166 28.5824C24.6405 28.3466 23.8389 27.8966 23.0959 27.2474C21.9962 26.2863 21.3903 25.0709 21.3903 23.8976C21.3903 23.7805 21.4084 23.7917 21.4252 23.7787C21.442 23.7656 21.5022 23.7421 21.5717 23.7421H21.5717ZM28.1779 27.9545C28.5152 27.9545 28.7085 28.0402 28.8406 28.1557C28.9727 28.2712 29.0708 28.4401 29.0708 28.7348V39.6591C29.0708 39.9539 28.9727 40.1228 28.8406 40.2382C28.7085 40.3537 28.5152 40.4394 28.1779 40.4394C27.8406 40.4394 27.6473 40.3537 27.5152 40.2382C27.383 40.1228 27.285 39.9539 27.285 39.6591V28.7348C27.285 28.5875 27.3102 28.4717 27.3512 28.3782C27.3923 28.2847 27.4491 28.2134 27.5152 28.1557C27.5576 28.1186 27.6213 28.0933 27.6791 28.0643L28.1779 27.9545ZM19.7858 31.0757C21.7304 31.0757 23.4242 31.6157 24.8678 32.8772L25.405 33.3435C25.4343 33.3698 25.4658 33.3942 25.4991 33.4167V37.2237C24.1608 37.0082 22.9666 36.498 21.8437 35.5168C20.4236 34.2757 19.7858 32.6033 19.7858 31.0757ZM36.2142 31.0757C36.2142 32.6033 35.573 34.2757 34.1528 35.5168C33.1293 36.4111 32.0513 36.9177 30.8566 37.1658V33.1149L31.1322 32.8772C32.5758 31.6157 34.2696 31.0757 36.2142 31.0757Z" fill="white"/>
<g filter="url(#filter0_d)">
<rect x="34" y="41" width="32" height="13" rx="3" fill="white"/>
</g>
<path d="M38.7713 43.92H41.2313C41.538 43.92 41.8213 43.9567 42.0813 44.03C42.348 44.1033 42.5747 44.2133 42.7613 44.36C42.9547 44.5 43.1047 44.6833 43.2113 44.91C43.3247 45.13 43.3813 45.39 43.3813 45.69C43.3813 46.0967 43.268 46.43 43.0413 46.69C42.8147 46.9433 42.5213 47.13 42.1613 47.25V47.27C42.3747 47.2833 42.5747 47.34 42.7613 47.44C42.948 47.5333 43.108 47.66 43.2413 47.82C43.3813 47.9733 43.4913 48.1533 43.5713 48.36C43.6513 48.5667 43.6913 48.79 43.6913 49.03C43.6913 49.35 43.6247 49.6333 43.4913 49.88C43.3647 50.12 43.188 50.3233 42.9613 50.49C42.7347 50.6567 42.4713 50.7833 42.1713 50.87C41.8713 50.9567 41.548 51 41.2013 51H38.7713V43.92ZM39.7313 46.86H41.0413C41.2213 46.86 41.3913 46.8433 41.5513 46.81C41.7113 46.77 41.8513 46.7067 41.9713 46.62C42.0913 46.5333 42.1847 46.4233 42.2513 46.29C42.3247 46.1567 42.3613 45.9933 42.3613 45.8C42.3613 45.52 42.2713 45.2767 42.0913 45.07C41.9113 44.8633 41.628 44.76 41.2413 44.76H39.7313V46.86ZM39.7313 50.16H41.1413C41.288 50.16 41.448 50.1467 41.6213 50.12C41.8013 50.0867 41.968 50.0267 42.1213 49.94C42.2747 49.8467 42.4047 49.7233 42.5113 49.57C42.618 49.4167 42.6713 49.2133 42.6713 48.96C42.6713 48.54 42.5347 48.2267 42.2613 48.02C41.988 47.8067 41.618 47.7 41.1513 47.7H39.7313V50.16ZM45.0702 43.92H49.6402V44.82H46.0302V46.93H49.3902V47.83H46.0302V50.1H49.8202V51H45.0702V43.92ZM52.6634 44.82H50.3834V43.92H55.9034V44.82H53.6234V51H52.6634V44.82ZM58.2277 43.92H59.0977L62.1277 51H61.0077L60.2977 49.25H56.9277L56.2277 51H55.1077L58.2277 43.92ZM59.9477 48.41L58.6277 45.16H58.6077L57.2677 48.41H59.9477Z" fill="#232735"/>
</g>
<defs>
<filter id="filter0_d" x="30" y="38" width="40" height="21" filterUnits="userSpaceOnUse" color-interpolation-filters="sRGB">
<feFlood flood-opacity="0" result="BackgroundImageFix"/>
<feColorMatrix in="SourceAlpha" type="matrix" values="0 0 0 0 0 0 0 0 0 0 0 0 0 0 0 0 0 0 127 0"/>
<feOffset dy="1"/>
<feGaussianBlur stdDeviation="2"/>
<feColorMatrix type="matrix" values="0 0 0 0 0 0 0 0 0 0 0 0 0 0 0 0 0 0 0.25 0"/>
<feBlend mode="normal" in2="BackgroundImageFix" result="effect1_dropShadow"/>
<feBlend mode="normal" in="SourceGraphic" in2="effect1_dropShadow" result="shape"/>
</filter>
<clipPath id="clip0">
<rect width="68" height="56" fill="white"/>
</clipPath>
</defs>
</svg>
